<svg width="34" height="34" viewBox="0 0 34 34" fill="none" xmlns="http://www.w3.org/2000/svg">
<circle cx="17" cy="17" r="17" fill="#1CC0C0"/>
<path d="M13.5 18.7502C13.5 19.7202 14.25 20.5002 15.17 20.5002H17.05C17.85 20.5002 18.5 19.8202 18.5 18.9702C18.5 18.0602 18.1 17.7302 17.51 17.5202L14.5 16.4702C13.91 16.2602 13.51 15.9402 13.51 15.0202C13.51 14.1802 14.16 13.4902 14.96 13.4902H16.84C17.76 13.4902 18.51 14.2702 18.51 15.2402" stroke="white" stroke-width="1.5" stroke-linecap="round" stroke-linejoin="round"/>
<path d="M16 12.5V21.5" stroke="white" stroke-width="1.5" stroke-linecap="round" stroke-linejoin="round"/>
<path d="M21 8V12H25" stroke="white" stroke-width="1.5" stroke-linecap="round" stroke-linejoin="round"/>
<path d="M26 7L21 12" stroke="white" stroke-width="1.5" stroke-linecap="round" stroke-linejoin="round"/>
<path d="M16 7C10.48 7 6 11.48 6 17C6 20.94 8.28001 24.35 11.6 25.98" stroke="white" stroke-width="1.5" stroke-linecap="round" stroke-linejoin="round"/>
<path d="M26 17C26 22.52 21.52 27 16 27" stroke="white" stroke-width="1.5" stroke-linecap="round" stroke-linejoin="round"/>
</svg>
