<svg width="34" height="34" viewBox="0 0 34 34" fill="none" xmlns="http://www.w3.org/2000/svg">
<circle cx="17" cy="17" r="17" fill="#1C69C0"/>
<path d="M13 16.4002C13 17.1702 13.6 17.8002 14.33 17.8002H15.83C16.47 17.8002 16.99 17.2502 16.99 16.5802C16.99 15.8502 16.67 15.5902 16.2 15.4202L13.8 14.5802C13.32 14.4102 13 14.1502 13 13.4202C13 12.7502 13.52 12.2002 14.16 12.2002H15.66C16.4 12.2102 17 12.8302 17 13.6002" stroke="white" stroke-width="1.5" stroke-linecap="round" stroke-linejoin="round"/>
<path d="M15 17.8501V18.5901" stroke="white" stroke-width="1.5" stroke-linecap="round" stroke-linejoin="round"/>
<path d="M15 11.4102V12.1902" stroke="white" stroke-width="1.5" stroke-linecap="round" stroke-linejoin="round"/>
<path d="M11.07 8.02C12.23 7.37 13.56 7 14.99 7C19.4 7 22.98 10.58 22.98 14.99C22.98 19.4 19.4 22.98 14.99 22.98C10.58 22.98 7 19.4 7 14.99C7 13.76 7.28 12.59 7.78 11.55" stroke="white" stroke-width="1.5" stroke-linecap="round" stroke-linejoin="round"/>
<path d="M17.98 24.88C18.88 26.15 20.35 26.98 22.03 26.98C24.76 26.98 26.98 24.76 26.98 22.03C26.98 20.37 26.16 18.9 24.91 18" stroke="white" stroke-width="1.5" stroke-linecap="round" stroke-linejoin="round"/>
</svg>
