<svg width="34" height="34" viewBox="0 0 34 34" fill="none" xmlns="http://www.w3.org/2000/svg">
<circle cx="17" cy="17" r="17" fill="#1CC0C0"/>
<path d="M13.5 19.7502C13.5 20.7202 14.25 21.5002 15.17 21.5002H17.05C17.85 21.5002 18.5 20.8202 18.5 19.9702C18.5 19.0602 18.1 18.7302 17.51 18.5202L14.5 17.4702C13.91 17.2602 13.51 16.9402 13.51 16.0202C13.51 15.1802 14.16 14.4902 14.96 14.4902H16.84C17.76 14.4902 18.51 15.2702 18.51 16.2402" stroke="white" stroke-width="1.5" stroke-linecap="round" stroke-linejoin="round"/>
<path d="M16 13.5V22.5" stroke="white" stroke-width="1.5" stroke-linecap="round" stroke-linejoin="round"/>
<path d="M16 8C10.48 8 6 12.48 6 18C6 21.94 8.28001 25.35 11.6 26.98" stroke="white" stroke-width="1.5" stroke-linecap="round" stroke-linejoin="round"/>
<path d="M26 18C26 23.52 21.52 28 16 28" stroke="white" stroke-width="1.5" stroke-linecap="round" stroke-linejoin="round"/>
<path d="M26 12V8H22" stroke="white" stroke-width="1.5" stroke-linecap="round" stroke-linejoin="round"/>
<path d="M21 13L26 8" stroke="white" stroke-width="1.5" stroke-linecap="round" stroke-linejoin="round"/>
</svg>
