<svg width="34" height="34" viewBox="0 0 34 34" fill="none" xmlns="http://www.w3.org/2000/svg">
<circle cx="17" cy="17" r="17" fill="#1C69C0"/>
<path d="M13.3201 20.2699L19.86 13.73" stroke="white" stroke-width="1.5" stroke-linecap="round" stroke-linejoin="round"/>
<path d="M13.73 15.3701C14.4093 15.3701 14.96 14.8195 14.96 14.1402C14.96 13.4609 14.4093 12.9102 13.73 12.9102C13.0507 12.9102 12.5 13.4609 12.5 14.1402C12.5 14.8195 13.0507 15.3701 13.73 15.3701Z" stroke="white" stroke-width="1.5" stroke-linecap="round" stroke-linejoin="round"/>
<path d="M20.27 21.0899C20.9493 21.0899 21.5 20.5392 21.5 19.8599C21.5 19.1806 20.9493 18.6299 20.27 18.6299C19.5907 18.6299 19.04 19.1806 19.04 19.8599C19.04 20.5392 19.5907 21.0899 20.27 21.0899Z" stroke="white" stroke-width="1.5" stroke-linecap="round" stroke-linejoin="round"/>
<path d="M9 11C7.75 12.67 7 14.75 7 17C7 22.52 11.48 27 17 27C22.52 27 27 22.52 27 17C27 11.48 22.52 7 17 7C15.57 7 14.2 7.30001 12.97 7.85001" stroke="white" stroke-width="1.5" stroke-linecap="round" stroke-linejoin="round"/>
</svg>
